<svg data-v-0dd9719b="" version="1.0" xmlns="http://www.w3.org/2000/svg" xmlns:xlink="http://www.w3.org/1999/xlink" width="100%" height="100%" viewBox="0 0 340.000000 250.000000" preserveAspectRatio="xMidYMid meet" color-interpolation-filters="sRGB" style="margin: auto;"> <rect data-v-0dd9719b="" x="0" y="0" width="100%" height="100%" fill="#ffffff" fill-opacity="1" class="background"></rect> <rect data-v-0dd9719b="" x="0" y="0" width="100%" height="100%" fill="url(#watermark)" fill-opacity="1" class="watermarklayer"></rect> <g data-v-0dd9719b="" fill="#168f78" class="icon-text-wrapper icon-svg-group iconsvg" transform="translate(48.974998474121094,95)"><g class="iconsvg-imagesvg" transform="translate(0,0)"><g><rect fill="#168f78" fill-opacity="0" stroke-width="2" x="0" y="0" width="60" height="60" class="image-rect"></rect> <svg filter="url(#colors2734249177)" x="0" y="0" width="60" height="60" filtersec="colorsf5607933789" class="image-svg-svg primary" style="overflow: visible;"><svg xmlns="http://www.w3.org/2000/svg" viewBox="0 0 96.60001 96.60001"><path d="M48.3 48.3c-12.8 0-23.1-10.4-23.1-23.1S35.5 2 48.3 2c6.4 0 12.2 2.6 16.4 6.8m-32.8 0c-5.9 0-11.8 2.3-16.4 6.8-9 9-9 23.7 0 32.7 9 9 23.7 9 32.7 0M8.8 31.9C4.6 36.1 2 41.9 2 48.3c0 12.8 10.4 23.1 23.1 23.1S48.2 61 48.2 48.3M8.8 64.7c0 5.9 2.3 11.8 6.8 16.4 9 9 23.7 9 32.7 0s9-23.7 0-32.7M31.9 87.8c4.2 4.2 10 6.8 16.4 6.8 12.8 0 23.1-10.4 23.1-23.1S61.1 48.3 48.3 48.3m16.4 39.5c5.9 0 11.8-2.3 16.4-6.8 9-9 9-23.7 0-32.7s-23.7-9-32.7 0m39.4 16.4c4.2-4.2 6.8-10 6.8-16.4 0-12.8-10.4-23.1-23.1-23.1S48.3 35.5 48.3 48.3m39.5-16.4c0-5.9-2.3-11.8-6.8-16.4-9-9-23.7-9-32.7 0s-9 23.7 0 32.7" fill="none" stroke="#333" stroke-width="4" stroke-miterlimit="10"></path></svg></svg> <defs><filter id="colors2734249177"><feColorMatrix type="matrix" values="0 0 0 0 0.9375  0 0 0 0 0.54296875  0 0 0 0 0.00390625  0 0 0 1 0" class="icon-fecolormatrix"></feColorMatrix></filter> <filter id="colorsf5607933789"><feColorMatrix type="matrix" values="0 0 0 0 0.99609375  0 0 0 0 0.99609375  0 0 0 0 0.99609375  0 0 0 1 0" class="icon-fecolormatrix"></feColorMatrix></filter> <filter id="colorsb8569141706"><feColorMatrix type="matrix" values="0 0 0 0 0  0 0 0 0 0  0 0 0 0 0  0 0 0 1 0" class="icon-fecolormatrix"></feColorMatrix></filter></defs></g></g> <g transform="translate(67,1.4887504577636719)"><g data-gra="path-name" fill-rule="" class="tp-name iconsvg-namesvg" transform="translate(0,0)"><g transform="scale(1)"><g><path d="M37.26-8.64C37.26-7.02 37.17-6.39 37.03-4.23 36.9-2.65 36.31-2.38 35.37-2.38L34.2-2.38C33.52-2.38 33.03-2.79 33.03-3.92L33.03-16.06 29.79-16.16C30.46-18.86 30.96-21.64 31.18-24.66L34.6-24.66 34.6-17.86 41.17-17.86 41.17-31.63 31.45-31.63 31.63-36.49 24.3-36.67 24.12-31.63 14.49-31.63 14.49-17.95 20.47-17.95 20.47-24.66 23.85-24.66C23.13-13.09 20.43-8.69 10.44 0.58L17.05 5.08C21.02 1.48 24.12-2.56 26.41-7.06L26.41-1.8C26.41 2.56 28.13 4.27 31.5 4.27L35.95 4.27C40.18 4.27 42.07 3.01 42.66-1.8 42.88-3.69 43.02-4.63 43.02-7.02ZM14.22-31.32C12.96-32.49 8.87-35.23 6.93-36.31L3.1-30.87C5.13-29.43 9.22-26.64 10.89-25.33ZM13.99-19.21C11.97-21.02 8.19-23.63 5.8-25.06L1.89-19.44C4-18 8.1-14.94 10.3-13ZM7.83-11.92C6.84-8.64 4.09-1.71 2.38 1.57L8.59 4.86C9.81 1.84 12.87-5.58 13.95-8.64ZM63.72-28.21L63.72-35.55 47.83-35.55 47.83 5.17 54.13 5.17 54.13-6.21 55.84 0.49 57.91 0.27C62.32-0.22 64.03-1.62 64.03-7.56 64.03-11.12 63.09-14.13 60.93-18.81ZM65.02-35.01L65.02 4.37 86 4.37 86-35.01ZM57.33-10.21C57.33-7.83 56.83-7.38 55.39-7.25L54.13-7.11 54.13-28.66 57.38-28.66 54.99-17.46C56.74-14.22 57.28-12.24 57.33-10.21ZM78.84-27.27L78.84-19.35 72-19.35 72-27.27ZM72-3.19L72-11.97 78.84-11.97 78.84-3.19ZM124.78-29.52L124.78-2.88 122.17-2.88 122.17-36.54 115.47-36.72 115.47-2.88 112.91-2.88 112.91-29.34 107.28-29.52 107.28-28.08 104.53-29.38C104.13-28.08 103.45-26.28 102.73-24.48L102.73-36.45 96.39-36.63 96.39-19.21C95.89-22.63 95.31-26.46 94.81-29.2L90.41-28.57C90.99-24.93 91.89-18.77 92.25-14.54L95.94-15.03C95.22-8.59 93.1-4.05 89.73 1.62L96.39 5.04C98.19 1.67 99.58-1.67 100.62-5.31 101.88-3.65 103.14-1.98 104.08-0.4L107.28-3.73 107.28 4.5 130.77 4.5 130.77-29.34ZM102.1-12.91C102.33-14.49 102.42-16.02 102.55-17.68L103.99-17.05C104.85-19.08 106.2-22.32 107.28-25.15L107.28-6.97C105.57-9.04 103.5-11.52 102.1-12.91ZM169.42-4.77C171.36-6.03 173.34-7.38 174.55-8.1L170.86-12.55 175.86-12.55 175.86-18.95 145.71-18.95 145.71-19.35 145.71-28.93 175-28.93 175-35.64 138.73-35.64 138.73-18.4C138.73-9.04 137.29-5.49 134.68 0.49L140.89 5.13C143.77-0.77 145.03-5 145.53-12.55L148-12.55 148-4.23C148-2.25 147.46-1.62 145.66-0.54L147.69 5.35C148.99 5 150.61 4.59 152.37 4.23L161.37 2.52 161.23-3.06C164.11 0.18 167.85 2.61 172.84 4.91L176.94-1.44C174.06-2.29 171.58-3.38 169.42-4.77ZM173.02-21.15L173.02-26.59 147.73-26.59 147.73-21.15ZM154.57-12.55L156.01-12.55C157.09-9.18 158.58-6.3 160.47-3.96 158.49-3.55 156.01-3.15 154.57-2.97ZM164.83-8.87C163.89-9.99 163.12-11.25 162.54-12.55L169.56-12.55C168.07-11.29 166.41-9.99 164.83-8.87Z" transform="translate(-1.8899999856948853, 36.720001220703125)"></path></g> <!----> <!----> <!----> <!----> <!----> <!----> <!----></g></g> <g data-gra="path-slogan" fill-rule="" class="tp-slogan iconsvg-slogansvg" fill="#f08b01" transform="translate(5,48.06999969482422)"><rect x="0" height="1" y="3.9750003814697266" width="15.514175415039062"></rect> <rect height="1" y="3.9750003814697266" width="15.514175415039062" x="149.53582763671875"></rect> <g transform="translate(18.514175415039062,0)"><g transform="scale(1)"><path d="M7.17-6.09L7.17-6.09L6.09-6.09Q6-7.73 3.94-7.83L3.94-7.83Q2.02-7.78 2.02-6.33L2.02-6.33Q2.02-5.39 3.05-5.25L3.05-5.25L5.48-4.69Q7.41-4.22 7.41-2.34L7.41-2.34Q7.36 0.05 4.03 0.14L4.03 0.14Q2.20 0.14 1.45-0.61L1.45-0.61Q0.52-1.31 0.56-2.77L0.56-2.77L1.69-2.77Q1.73-0.80 4.03-0.75L4.03-0.75Q6.28-0.80 6.33-2.20L6.33-2.20Q6.52-3.38 4.45-3.75L4.45-3.75L2.67-4.13Q0.84-4.64 0.84-6.19L0.84-6.19Q0.98-8.72 3.84-8.81L3.84-8.81Q7.08-8.81 7.17-6.09ZM10.03-5.06L14.53-5.06L14.53-8.58L15.70-8.58L15.70 0L14.53 0L14.53-3.98L10.03-3.98L10.03 0L8.86 0L8.86-8.58L10.03-8.58L10.03-5.06ZM18.80-1.03L23.95-1.03L23.95 0L17.63 0L17.63-8.58L23.86-8.58L23.86-7.59L18.80-7.59L18.80-4.92L23.48-4.92L23.48-3.89L18.80-3.89L18.80-1.03ZM26.86-8.58L31.17-1.64L31.17-8.58L32.30-8.58L32.30 0L30.98 0L26.63-6.94L26.58-6.94L26.58 0L25.45 0L25.45-8.58L26.86-8.58ZM41.02-8.58L37.78-3.47L37.78 0L36.61 0L36.61-3.47L33.38-8.58L34.73-8.58L37.17-4.45L39.66-8.58L41.02-8.58ZM47.72 0L46.88-2.48L43.41-2.48L42.52 0L41.34 0L44.58-8.58L45.89-8.58L48.98 0L47.72 0ZM45.14-7.31L43.78-3.52L46.45-3.52L45.19-7.31L45.14-7.31ZM51.42-8.58L55.73-1.64L55.73-8.58L56.86-8.58L56.86 0L55.55 0L51.19-6.94L51.14-6.94L51.14 0L50.02 0L50.02-8.58L51.42-8.58ZM65.06-3.61L62.44-3.61L62.44-4.59L66.19-4.59L66.19 0L65.44 0L65.16-1.08Q64.17 0.09 62.34 0.14L62.34 0.14Q60.61 0.14 59.67-0.75L59.67-0.75Q58.27-2.06 58.31-4.36L58.31-4.36Q58.64-8.63 62.39-8.81L62.39-8.81Q65.58-8.63 66.05-6L66.05-6L64.92-6Q64.45-7.78 62.34-7.83L62.34-7.83Q59.67-7.64 59.53-4.31L59.53-4.31Q59.53-0.75 62.39-0.75L62.39-0.75Q63.42-0.75 64.17-1.31L64.17-1.31Q65.11-2.06 65.06-3.61L65.06-3.61ZM78.47-6.05L78.47-6.05L77.34-6.05Q76.92-7.78 74.95-7.83L74.95-7.83Q72.23-7.69 72.14-4.36L72.14-4.36Q72.14-0.80 75-0.80L75-0.80Q76.97-0.84 77.44-3.19L77.44-3.19L78.56-3.19Q78.05 0.05 74.77 0.14L74.77 0.14Q71.02 0 70.92-4.31L70.92-4.31Q71.11-8.63 74.95-8.81L74.95-8.81Q78-8.72 78.47-6.05ZM85.59 0L84.75-2.48L81.28-2.48L80.39 0L79.22 0L82.45-8.58L83.77-8.58L86.86 0L85.59 0ZM83.02-7.31L81.66-3.52L84.33-3.52L83.06-7.31L83.02-7.31ZM89.30-8.58L93.61-1.64L93.61-8.58L94.73-8.58L94.73 0L93.42 0L89.06-6.94L89.02-6.94L89.02 0L87.89 0L87.89-8.58L89.30-8.58ZM103.69-6.05L103.69-6.05L102.56-6.05Q102.14-7.78 100.17-7.83L100.17-7.83Q97.45-7.69 97.36-4.36L97.36-4.36Q97.36-0.80 100.22-0.80L100.22-0.80Q102.19-0.84 102.66-3.19L102.66-3.19L103.78-3.19Q103.27 0.05 99.98 0.14L99.98 0.14Q96.23 0 96.14-4.31L96.14-4.31Q96.33-8.63 100.17-8.81L100.17-8.81Q103.22-8.72 103.69-6.05ZM106.31-5.06L110.81-5.06L110.81-8.58L111.98-8.58L111.98 0L110.81 0L110.81-3.98L106.31-3.98L106.31 0L105.14 0L105.14-8.58L106.31-8.58L106.31-5.06ZM115.08-1.03L120.23-1.03L120.23 0L113.91 0L113.91-8.58L120.14-8.58L120.14-7.59L115.08-7.59L115.08-4.92L119.77-4.92L119.77-3.89L115.08-3.89L115.08-1.03ZM123.14-8.58L127.45-1.64L127.45-8.58L128.58-8.58L128.58 0L127.27 0L122.91-6.94L122.86-6.94L122.86 0L121.73 0L121.73-8.58L123.14-8.58Z" transform="translate(-0.5602678571428572, 8.8125)"></path></g></g></g></g></g><defs v-gra="od"></defs></svg>